 <svg xmlns="http://www.w3.org/2000/svg" xmlns:xlink="http://www.w3.org/1999/xlink" viewBox="0 0 42.8 39.9"><defs><path id="a" d="M0 0h43.1v40H0z"/></defs><clipPath id="b"><use overflow="visible" xlink:href="#a"/></clipPath><g clip-path="url(#b)"><path fill="#efa645" d="M28.6 10.9c-.1-.2-.3-.4-.5-.6-.2-.2-.3-.4-.4-.6s-.2-.4-.4-.6l-.3-.6c-.3-.4-.5-.8-.8-1.2 0-.1-.1-.2-.2-.3s-.2-.1-.3-.2c-.2-.2-.3-.4-.4-.6-.1-.2-.3-.4-.5-.5-.2-.1-.4-.2-.6-.4l-.6-.4c-.2-.1-.4-.3-.6-.4s-.4-.3-.6-.4c-.2-.1-.4-.2-.6-.4l-.6-.3c-.2-.2-.4-.3-.7-.4-.9-.4-1.8-.7-2.7-.8-.2 0-.5-.1-.7-.1-.2-.1-.5-.1-.7-.1-.2 0-.5 0-.7-.1h-2.1c-.2 0-.5 0-.7.1-.2 0-.5.1-.7.1-1 .2-1.9.4-2.8.8-.3.1-.5.2-.8.3l-.6.3c-.2.1-.5.2-.7.3-.1.1-.2.2-.3.2s-.2.2-.3.2c-.2.2-.3.4-.5.5s-.3.4-.5.6c-.2.1-.4.3-.5.5l-.6.4c-1.4 1.3-2.4 2.9-3.2 4.7-.1.2-.2.5-.3.7-.1.2-.1.5-.2.7s-.1.5-.2.7-.1.5-.2.7-.1.5-.1.7-.1.5-.1.7v1.4c0 1.9.4 3.8 1.1 5.6.7 1.8 1.7 3.5 3.1 4.9 1.4 1.3 3 2.4 4.8 3.2.4.2.9.4 1.4.5.5.1.9.2 1.4.4.2.1.5.2.7.2.2 0 .5.1.7.1l.7.1h2.1c.2 0 .5-.1.7-.1s.5-.1.7-.1c1-.2 1.9-.5 2.8-.9.2-.1.5-.2.7-.3.2-.1.4-.2.6-.4.2-.1.4-.3.6-.4s.4-.3.6-.4.4-.3.6-.4.4-.3.6-.5l.5-.5c.2-.2.4-.3.5-.5l.5-.5c.2-.2.4-.3.5-.5s.3-.4.5-.6.3-.4.4-.6.3-.4.4-.6l.3-.6c.1-.2.2-.5.3-.7.1-.2.2-.5.3-.7.1-.2.2-.5.2-.7.1-.2.1-.5.2-.7.1-.5.2-.9.3-1.4v-.8c0-.2 0-.5.1-.7v-1.4c.5-1.9.2-3.9-.6-5.6z"/><path fill="#fcc875" d="M29.4 14.6v-1.4c0-.2 0-.5-.1-.7 0-.2-.1-.5-.1-.7-.2-1-.5-1.9-.9-2.8-.4-.9-.9-1.7-1.4-2.5-.5-.8-1.1-1.6-1.8-2.3-.7-.7-1.5-1.3-2.3-1.8-.8-.5-1.7-.9-2.6-1.3C18.4.4 16.5 0 14.6 0 12.7 0 10.8.3 9 1c-.5.2-.9.4-1.3.7-.2.1-.4.3-.6.4s-.4.3-.6.4C5.7 3 5 3.6 4.3 4.3 2.9 5.6 1.9 7.2 1.1 9c-.4.9-.6 1.8-.8 2.7 0 .2-.1.5-.1.7s-.1.5-.1.7l-.1.8v3.6c.2 1 .5 1.9.9 2.8.9 1.7 2 3.3 3.4 4.7 1.3 1.4 2.9 2.5 4.7 3.2 1.8.8 3.7 1.2 5.6 1.3.2 0 .5-.1.7-.1s.5-.1.7-.1c.2 0 .5-.1.7-.1s.5-.1.7-.1c.5-.1.9-.2 1.4-.4.2-.1.5-.2.7-.2.2-.1.5-.2.7-.3.2-.1.5-.2.7-.3l.6-.3c.2-.1.4-.2.6-.4.2-.1.4-.3.6-.4.2-.1.4-.3.5-.5.2-.2.4-.3.6-.5.2-.2.4-.3.6-.4l.6-.4c.7-.6 1.4-1.4 1.9-2.2.1-.2.2-.4.4-.6l.3-.6.3-.7.1-.3c0-.1.1-.2.1-.3.3-.9.8-1.8 1-2.7.1-.5.2-.9.2-1.4v-.7c.1-.3.1-.6.1-.9z"/><path fill="#f7b759" d="M25.5 12.5c-.1-.4-.1-.7-.2-1.1-.1-.3-.2-.7-.4-1 0-.1-.1-.2-.2-.2l-.2-.2c-.1-.2-.2-.3-.3-.5-.1-.2-.2-.3-.3-.5l-.3-.5c-.2-.2-.4-.5-.6-.8 0-.1-.1-.1-.2-.2s-.2-.1-.2-.2c-.1-.2-.2-.3-.3-.5-.1-.2-.2-.3-.4-.4-.2-.1-.3-.2-.5-.3l-.8-.6c-.1-.1-.3-.2-.4-.3s-.3-.1-.5-.2c-.3-.2-.7-.4-1-.5-.6-.3-1.3-.5-2-.6-.2 0-.3-.1-.5-.1s-.4 0-.5-.1h-2.5c-.2 0-.4 0-.5.1-.7.1-1.4.3-2.1.5-.2.1-.3.1-.5.2-.4.2-.5.3-.7.3s-.3.2-.5.3-.3.2-.4.3l-.4.4c-.1.2-.2.3-.3.4-.2.1-.3.3-.4.4L7 7c-1 1-1.8 2.2-2.4 3.5-.1.2-.1.3-.2.5s-.1.3-.2.5-.1.3-.2.5-.1.3-.1.5-.1.3-.1.5 0 .4-.1.5v1c0 1.4.3 2.9.9 4.2.5 1.3 1.3 2.6 2.3 3.6.5.5 1.1.9 1.7 1.4.6.4 1.2.8 1.9 1.1.3.1.7.3 1 .4.2 0 .3.1.5.1s.3.1.5.2.3.1.5.2c.2 0 .4 0 .5.1h2c.2 0 .4 0 .5-.1.2 0 .3-.1.5-.1.7-.2 1.4-.4 2.1-.7.2-.1.3-.2.5-.2s.3-.2.5-.3.3-.2.5-.3c.2-.1.3-.2.4-.3.1-.1.3-.2.4-.3s.3-.2.4-.3l.4-.4c.1-.1.3-.2.4-.3l.4-.3c.1-.1.3-.2.4-.4s.2-.3.4-.4.2-.3.3-.4.2-.3.3-.5.2-.3.2-.5.2-.3.2-.5.1-.3.2-.5c.2-.7.4-1.4.5-2.1v-2c.5-.7.7-1.6.5-2.4z"/><path fill="#fbd79f" d="M20.3 15.5l-3 1.4c-.3.1-.6.4-.7.7l-1.4 3c-.2.3-.5.4-.8.2-.1-.1-.2-.1-.2-.2l-1.4-3c-.1-.3-.4-.6-.7-.7l-3-1.4c-.3-.2-.4-.5-.2-.8.1-.1.1-.2.2-.2l3-1.4c.3-.1.6-.4.7-.7l1.4-3c.2-.3.5-.4.8-.2.1.1.2.1.2.2l1.4 3c.1.3.4.6.7.7l3 1.4c.3.2.4.5.2.8 0 .1-.1.1-.2.2z"/><path fill="#efa645" d="M42 19.4c-.1-.2-.3-.4-.5-.6-.2-.2-.3-.4-.4-.6s-.2-.4-.4-.6l-.3-.6c-.3-.4-.5-.8-.8-1.2-.1-.1-.1-.2-.2-.3s-.2-.1-.3-.2c-.2-.2-.3-.4-.4-.6-.1-.2-.3-.4-.5-.5-.2-.1-.4-.2-.6-.4l-.6-.4c-.2-.1-.4-.3-.6-.4s-.4-.3-.6-.4c-.2-.1-.4-.2-.6-.4l-.6-.3c-.2-.1-.5-.2-.7-.3-.9-.4-1.8-.7-2.7-.8-.2 0-.5-.1-.7-.1s-.5-.1-.7-.1c-.2 0-.5 0-.7-.1H27c-.2 0-.5 0-.7.1s-.5.1-.7.1c-1 .2-1.9.4-2.8.8-.2.1-.5.2-.7.3-.2.1-.5.2-.7.3l-.6.3c-.1.1-.2.1-.3.2s-.2.1-.3.2-.4.3-.5.5-.3.4-.5.5-.4.3-.5.5l-.7.5c-1.4 1.3-2.4 2.9-3.2 4.7-.1.2-.2.5-.3.7-.1.2-.2.5-.2.7-.1.2-.1.5-.2.7s-.1.4-.2.6-.1.5-.1.7-.1.5-.1.7V25c0 3.9 1.5 7.6 4.2 10.4 1.4 1.3 3 2.4 4.8 3.2.4.2.9.4 1.4.5.5.1.9.2 1.4.4.2.1.5.2.7.2.2 0 .5.1.7.1l.7.1h2.1c.2 0 .5-.1.7-.1s.5-.1.7-.1c1-.2 1.9-.5 2.8-.9.2-.1.5-.2.7-.3.2-.1.4-.2.6-.4.2-.1.4-.3.6-.4s.4-.3.6-.4.4-.3.6-.4.4-.3.6-.5l.5-.5c.2-.2.4-.3.5-.5l.5-.5c.2-.2.4-.3.5-.5s.3-.4.5-.6.3-.4.4-.6.3-.4.4-.6l.3-.6c.1-.2.2-.5.3-.7.1-.2.2-.5.3-.7.1-.2.2-.5.2-.7.1-.2.1-.5.2-.7.1-.5.2-.9.3-1.4V27c0-.2 0-.5.1-.7v-1.4c.4-1.8.2-3.8-.6-5.5z"/><path fill="#fcc875" d="M42.8 23.1v-1.4c0-.2 0-.5-.1-.7 0-.2-.1-.5-.1-.7-.2-1-.5-1.9-.9-2.8-.4-.9-.9-1.7-1.4-2.5-1-1.7-2.4-3.1-4.1-4.1-.8-.5-1.7-.9-2.6-1.3C30 8.2 26 8.1 22.4 9.5c-.4.2-.9.4-1.3.6-.2.1-.4.3-.6.4s-.4.3-.6.4c-.8.5-1.6 1.1-2.2 1.8-1.3 1.4-2.4 3-3.1 4.8-.4.9-.6 1.8-.8 2.7 0 .2-.1.5-.1.7s-.1.5-.1.7l-.1.7v3.6c.2 1 .5 1.9.9 2.8.8 1.8 1.9 3.4 3.3 4.7 1.3 1.4 2.9 2.5 4.7 3.2 1.8.8 3.7 1.2 5.6 1.3.2 0 .5-.1.7-.1s.5-.1.7-.1.5-.1.7-.1.5-.1.7-.1c.5-.1.9-.2 1.4-.4.2-.1.5-.2.7-.2.2-.1.5-.2.7-.3.2-.1.5-.2.7-.3l.6-.3c.2-.1.4-.2.6-.4.2-.1.4-.3.6-.4.2-.1.4-.3.5-.5.2-.2.4-.3.6-.5.2-.2.4-.3.6-.4l.6-.5c.7-.6 1.4-1.4 1.9-2.2.1-.2.2-.4.4-.6l.3-.6.3-.7.1-.3c0-.1.1-.2.1-.3.3-.9.8-1.8 1-2.7.1-.5.2-.9.2-1.4v-.7c.1-.2.1-.5.1-.7z"/><path fill="#f7b759" fill-rule="evenodd" d="M38.6 19.9c.1.4.2.7.2 1.1.1.7.2 1.4.2 2.1v2c-.2.7-.3 1.4-.5 2.1 0 .1-.1.2-.1.3s-.1.2-.1.3c0 0 125456.8 62729.2-.2.4 0 .1-.1.2-.2.3s-.1.1-.1.2 0 .1-.1.2-.1.1-.1.2l-.2.2-.2.2-.3.3-.1.1-.3.3-.1.1-.4.3c-.1.1-.3.2-.4.3l-.6.7-.2.2-.2.2c-.1.1-.2.1-.3.2l-.1.1c-.1.1-.2.1-.2.2s-.1.1-.2.1-.1 0-.2.1-.1.1-.2.1l-.5.3c-.2.1-.3.2-.5.2-.7.3-1.4.5-2.1.7h-.7c-.2 0-.3.1-.5.1h-2.7c-.1 0-.3-.1-.4-.1h-.1c-.2-.1-.3-.1-.5-.2-.2 0-.3-.1-.5-.1h-.1l-.9-.3c-.1 0-.1 0-.1-.1-.7-.3-1.3-.7-1.9-1.1-.6-.4-1.2-.9-1.7-1.4-1-1-1.8-2.3-2.3-3.6-.6-1.3-.9-2.8-.9-4.2v-1.6c0-.1 0-.3.1-.4v-.2c0-.1.1-.2.1-.3s0-.1.1-.2.1-.2.1-.3.1-.2.1-.3.1-.3.1-.4v-.1c0-.1 0-.1.1-.2 0-.1 0-.1.1-.2.6-1.3 1.4-2.5 2.4-3.5l.4-.4.2-.2.2-.2c.1-.1.2-.3.4-.4s.2-.3.4-.4.3-.2.4-.3.1-.1.2-.1.2-.1.3-.2c0 0-250913.7-501828.5.4-.2.2-.1.3-.1.5-.2.7-.2 1.4-.4 2.1-.5.2 0 .3-.1.5-.1h3.4c.2 0 .3.1.5.1.7.1 1.4.3 2 .6.4.1.7.3 1 .5.1 0 .1 0 .2.1.1 0 .1.1.2.1s.1.1.2.1.2.1.2.2l.8.6c.2.1.3.2.5.3.2.1.3.2.4.4 0 .1.1.1.1.2s.1.2.2.3l.1.1c.1 0 .1 0 .1.1l.2.2c.1.3.3.5.5.7l.1.1.3.5c0 .1 0 .1.1.2 0 .1.1.1.1.2s0 .1.1.1c.1.1.1.2.2.4l.2.2.2.2c.2.4.4.9.5 1.3zm-7.9 5.5l3-1.4c.3-.2.4-.5.2-.8-.1-.1-.1-.2-.2-.2l-3-1.4c-.3-.1-.6-.4-.7-.7l-1.4-3c-.2-.3-.5-.4-.8-.2-.1.1-.2.1-.2.2l-1.4 3c-.1.3-.4.6-.7.7l-3 1.4c-.3.2-.4.5-.2.8.1.1.1.2.2.2l3 1.4c.3.1.6.4.7.7l1.4 3c.2.3.5.4.8.2.1-.1.2-.1.2-.2l1.4-3c.2-.3.4-.5.7-.7z" clip-rule="evenodd"/></g></svg>