<?xml version="1.0" encoding="UTF-8" standalone="no"?>
<!DOCTYPE svg PUBLIC "-//W3C//DTD SVG 1.1//EN" "http://www.w3.org/Graphics/SVG/1.1/DTD/svg11.dtd">
<svg width="100%" height="100%" viewBox="0 0 420 310" version="1.1" xmlns="http://www.w3.org/2000/svg" xmlns:xlink="http://www.w3.org/1999/xlink" xml:space="preserve" xmlns:serif="http://www.serif.com/" style="fill-rule:evenodd;clip-rule:evenodd;stroke-linejoin:round;stroke-miterlimit:2;">
    <g transform="matrix(0.19173,0,0,0.176743,-220.044,-155.159)">
        <path d="M1855.14,1287.97C1855.14,1202.06 1785.48,1132.41 1699.6,1132.41C1613.69,1132.41 1544.03,1202.06 1544.03,1287.97C1544.03,1373.87 1613.69,1443.52 1699.6,1443.52C1785.48,1443.52 1855.14,1373.87 1855.14,1287.97Z" style="fill:rgb(102,102,102);fill-rule:nonzero;"/>
    </g>
    <g transform="matrix(0.19173,0,0,0.201862,-218.9,-167.661)">
        <path d="M1197.64,930.841C1197.64,906.349 1217.52,886.495 1241.98,886.495L3231.96,886.495C3256.4,886.495 3276.36,906.472 3276.36,930.897L3276.36,2167.36L2665.58,1304.17C2615.37,1233.23 2510.1,1233.23 2459.91,1304.19L2029.96,1911.9L2351.8,2233.8C2362.72,2244.73 2362.72,2262.42 2351.8,2273.34C2346.34,2278.8 2339.18,2281.54 2332.03,2281.54C2324.87,2281.54 2317.72,2278.8 2312.26,2273.34L1796.18,1757.24C1746.75,1707.81 1666.5,1708.08 1617.4,1757.86L1197.64,2183.53L1197.64,930.841ZM1169.67,2338.29L1172.84,2338.29C1190.86,2355.51 1215.17,2366.27 1241.98,2366.27L3231.96,2366.27C3258.83,2366.27 3283.08,2355.51 3301.1,2338.29L3304.33,2338.29L3304.33,2335.11C3321.53,2317.09 3332.29,2292.81 3332.29,2265.97L3332.29,930.841C3332.29,875.545 3287.29,830.57 3231.96,830.57L1241.98,830.57C1186.66,830.57 1141.71,875.545 1141.71,930.841L1141.71,2265.97C1141.71,2292.79 1152.42,2317.06 1169.67,2335.08L1169.67,2338.29Z" style="fill:rgb(102,102,102);fill-rule:nonzero;"/>
    </g>
</svg>
